<svg viewBox="0 0 110 88" width="110" height="88" class=""><defs><path d="M3 0h80.928a5 5 0 0 1 3.536 1.464l15.072 15.072A5 5 0 0 1 104 20.07V77a3 3 0 0 1-3 3H3a3 3 0 0 1-3-3V3a3 3 0 0 1 3-3z" id="a"></path></defs><g transform="translate(4 3)" fill="none" fill-rule="evenodd"><use fill="#000" filter="url(#filter-3)" xlink:href="#a"></use><use fill="#FFF" xlink:href="#a"></use><path stroke-opacity=".08" stroke="#000" d="M3-.5h80.929a5.5 5.5 0 0 1 3.889 1.61l15.071 15.072a5.5 5.5 0 0 1 1.611 3.89V77a3.5 3.5 0 0 1-3.5 3.5H3A3.5 3.5 0 0 1-.5 77V3A3.5 3.5 0 0 1 3-.5z" fill="url(#linearGradient-1)"></path><rect fill-opacity=".2" fill="#000" x="14" y="22" width="16" height="6" rx=".5"></rect><rect fill-opacity=".1" fill="#000" x="34" y="22" width="16" height="6" rx=".5"></rect><rect fill-opacity=".1" fill="#000" x="54" y="22" width="16" height="6" rx=".5"></rect><rect fill-opacity=".1" fill="#000" x="74" y="22" width="16" height="6" rx=".5"></rect><rect fill-opacity=".2" fill="#000" x="14" y="12" width="16" height="6" rx=".5"></rect><rect fill-opacity=".2" fill="#000" x="34" y="12" width="16" height="6" rx=".5"></rect><rect fill-opacity=".2" fill="#000" x="54" y="12" width="16" height="6" rx=".5"></rect><rect fill-opacity=".2" fill="#000" x="74" y="12" width="16" height="6" rx=".5"></rect><rect fill-opacity=".2" fill="#000" x="14" y="32" width="16" height="6" rx=".5"></rect><rect fill-opacity=".1" fill="#000" x="34" y="32" width="16" height="6" rx=".5"></rect><rect fill-opacity=".1" fill="#000" x="54" y="32" width="16" height="6" rx=".5"></rect><rect fill-opacity=".1" fill="#000" x="74" y="32" width="16" height="6" rx=".5"></rect><rect fill-opacity=".2" fill="#000" x="14" y="42" width="16" height="6" rx=".5"></rect><rect fill-opacity=".1" fill="#000" x="34" y="42" width="16" height="6" rx=".5"></rect><rect fill-opacity=".1" fill="#000" x="54" y="42" width="16" height="6" rx=".5"></rect><rect fill-opacity=".1" fill="#000" x="74" y="42" width="16" height="6" rx=".5"></rect><rect fill-opacity=".2" fill="#000" x="14" y="52" width="16" height="6" rx=".5"></rect><rect fill-opacity=".1" fill="#000" x="34" y="52" width="16" height="6" rx=".5"></rect><rect fill-opacity=".1" fill="#000" x="54" y="52" width="16" height="6" rx=".5"></rect><rect fill-opacity=".1" fill="#000" x="74" y="52" width="16" height="6" rx=".5"></rect><rect fill-opacity=".2" fill="#000" x="14" y="62" width="16" height="6" rx=".5"></rect><rect fill-opacity=".1" fill="#000" x="34" y="62" width="16" height="6" rx=".5"></rect><rect fill-opacity=".1" fill="#000" x="54" y="62" width="16" height="6" rx=".5"></rect><rect fill-opacity=".1" fill="#000" x="74" y="62" width="16" height="6" rx=".5"></rect><path d="M85.5.5v15a3 3 0 0 0 3 3h15" stroke-opacity=".12" stroke="#000" fill="#FFF"></path></g></svg>