<svg viewBox="0 0 88 110" width="88" height="110" class=""><defs><rect id="b" x="0" y="0" width="54" height="36" rx="2.37"></rect><path d="M3 0h56.928a5 5 0 0 1 3.536 1.464l15.072 15.072A5 5 0 0 1 80 20.07V101a3 3 0 0 1-3 3H3a3 3 0 0 1-3-3V3a3 3 0 0 1 3-3z" id="a"></path></defs><g transform="translate(4 3)" fill="none" fill-rule="evenodd"><use fill="#000" filter="url(#filter-3)" xlink:href="#a"></use><use fill="#FFF" xlink:href="#a"></use><path stroke-opacity=".08" stroke="#000" d="M3-.5h56.929a5.5 5.5 0 0 1 3.889 1.61l15.071 15.072a5.5 5.5 0 0 1 1.611 3.89V101a3.5 3.5 0 0 1-3.5 3.5H3A3.5 3.5 0 0 1-.5 101V3A3.5 3.5 0 0 1 3-.5z" fill="url(#linearGradient-1)"></path><rect fill-opacity=".2" fill="#000" x="13" y="84" width="54" height="2" rx=".5"></rect><rect fill-opacity=".2" fill="#000" x="13" y="89" width="27" height="2" rx=".5"></rect><rect fill-opacity=".2" fill="#000" x="13" y="24" width="54" height="2" rx=".5"></rect><rect fill-opacity=".2" fill="#000" x="13" y="29" width="54" height="2" rx=".5"></rect><rect fill-opacity=".2" fill="#000" x="13" y="34" width="40" height="2" rx=".5"></rect><g transform="translate(13 42)"><mask id="c" fill="#fff"><use xlink:href="#b"></use></mask><use fill-opacity=".1" fill="#000" xlink:href="#b"></use><circle fill-opacity=".1" fill="#000" mask="url(#c)" cx="37.5" cy="11.5" r="5.5"></circle><path d="m34.565 31.195 7.912-7.89a2.37 2.37 0 0 1 3.348 0l25.144 25.073L44.15 75.119l-19.556-19.5-11.259 11.228-26.817-26.742 25.143-25.072a2.37 2.37 0 0 1 3.348 0l16.208 16.162a2.37 2.37 0 0 0 3.347 0z" fill-opacity=".1" fill="#000" mask="url(#c)"></path></g><path d="M61.5.5v15a3 3 0 0 0 3 3h15" stroke-opacity=".12" stroke="#000" fill="#FFF"></path></g></svg>